<svg xmlns="http://www.w3.org/2000/svg" width="59.485" height="41.046" viewBox="0 0 59.485 41.046">
  <g id="_001-vision" data-name="001-vision" transform="translate(0 -49.596)">
    <path id="Pfad_13" data-name="Pfad 13" d="M58.917,61.368A41.817,41.817,0,0,0,29.745,49.6h0A41.816,41.816,0,0,0,.568,61.368,1.859,1.859,0,1,0,3.15,64.044a38.319,38.319,0,0,1,53.186,0,1.859,1.859,0,1,0,2.581-2.675Z" transform="translate(0)" fill="#c18e45"/>
    <path id="Pfad_14" data-name="Pfad 14" d="M43.251,121.99c-12.914,0-22.588,8.753-26.148,12.517a1.859,1.859,0,0,0,0,2.555c3.56,3.763,13.234,12.517,26.148,12.517S65.84,140.825,69.4,137.061a1.859,1.859,0,0,0,0-2.555C65.84,130.743,56.166,121.99,43.251,121.99Zm-11.91,6.554a14.981,14.981,0,0,0-.3,14.333,40.089,40.089,0,0,1-9.968-7.092A39.923,39.923,0,0,1,31.341,128.544Zm7.142,16.86a10.867,10.867,0,0,1,1.365-19.46,24.552,24.552,0,0,1,5.961-.1,10.569,10.569,0,0,1,7.078,10.141,10.69,10.69,0,0,1-5.655,9.556,24.992,24.992,0,0,1-8.749-.136Zm16.231-2.171a14.872,14.872,0,0,0-.308-15.037,39.486,39.486,0,0,1,11.026,7.589A39.657,39.657,0,0,1,54.715,143.233Z" transform="translate(-13.51 -58.937)" fill="#c18e45"/>
    <path id="Pfad_15" data-name="Pfad 15" d="M142.622,176.664a4.711,4.711,0,0,1-4.713-4.705,4.705,4.705,0,1,0,4.713,4.705Z" transform="translate(-108.436 -99.617)" fill="#c18e45"/>
  </g>
</svg>
