<svg xmlns="http://www.w3.org/2000/svg" width="57.845" height="58.9" viewBox="0 0 57.845 58.9">
  <path id="_003-brain" data-name="003-brain" d="M61.745,32.234A11.039,11.039,0,0,0,56.395,22.8,11.012,11.012,0,0,0,46.182,7.681a10.6,10.6,0,0,0-3.318.52A11.01,11.01,0,0,0,23.3,8.323a10.826,10.826,0,0,0-3.7-.642A11.02,11.02,0,0,0,8.589,18.689,10.651,10.651,0,0,0,8.65,19.9a11.007,11.007,0,0,0-.764,16.725,11,11,0,0,0,6.757,17.658,11.019,11.019,0,0,0,18.636,2.263,11.021,11.021,0,0,0,17.933-2.37,11.037,11.037,0,0,0,6.482-10.044,10.862,10.862,0,0,0-.428-3.058A10.906,10.906,0,0,0,61.745,32.234ZM54.3,38.823a1.748,1.748,0,0,0-.764,2.263,7.476,7.476,0,0,1-4.219,10.075,1.732,1.732,0,0,0-.994.948,7.493,7.493,0,0,1-13.362.764V20a1.758,1.758,0,0,0-3.516,0V52.949a7.5,7.5,0,0,1-13.851-.856A1.762,1.762,0,0,0,16.049,50.9,7.492,7.492,0,0,1,10.9,38.533a18.035,18.035,0,0,0,6.589,1.789h.031a1.758,1.758,0,0,0,.031-3.516,16.961,16.961,0,0,1-6.1-1.926,7.493,7.493,0,0,1,.092-12.72,1.748,1.748,0,0,0,.795-1.88,7.351,7.351,0,0,1-.183-1.636A7.5,7.5,0,0,1,23.4,12.161a1.768,1.768,0,0,0,2.568-1.024A7.5,7.5,0,0,1,40.3,10.968a1.732,1.732,0,0,0,1.009,1.085,1.8,1.8,0,0,0,1.483-.061,7.305,7.305,0,0,1,3.455-.841,7.485,7.485,0,0,1,6.345,11.466,1.781,1.781,0,0,0-.183,1.5,1.744,1.744,0,0,0,1.04,1.085,7.536,7.536,0,0,1,4.831,7A7.653,7.653,0,0,1,54.3,38.823Z" transform="translate(-4.15 -2.05)" fill="#c18e45" stroke="#c18e45" stroke-width="0.5"/>
</svg>
