<svg xmlns="http://www.w3.org/2000/svg" width="36.444" height="59.406" viewBox="0 0 36.444 59.406">
  <g id="_004-solution" data-name="004-solution" transform="translate(-98.948)">
    <g id="Gruppe_6" data-name="Gruppe 6" transform="translate(98.948 10.226)">
      <g id="Gruppe_5" data-name="Gruppe 5" transform="translate(0)">
        <path id="Pfad_16" data-name="Pfad 16" d="M135.392,106.358a18.222,18.222,0,1,0-28.169,15.27v5.741a9.947,9.947,0,0,0,19.893,0v-5.741A18.285,18.285,0,0,0,135.392,106.358ZM123.6,127.369a6.434,6.434,0,0,1-12.868,0V125.9H123.6Zm.881-8.246a1.756,1.756,0,0,0-.881,1.523v1.742h-4.678v-9.082a5.7,5.7,0,0,0,3.934-5.412,1.756,1.756,0,1,0-3.513,0,2.178,2.178,0,1,1-4.356,0,1.756,1.756,0,1,0-3.513,0,5.7,5.7,0,0,0,3.934,5.412v9.082h-4.677v-1.743a1.756,1.756,0,0,0-.881-1.523,14.71,14.71,0,1,1,14.63,0Z" transform="translate(-98.948 -88.136)" fill="#c18e45"/>
      </g>
    </g>
    <g id="Gruppe_8" data-name="Gruppe 8" transform="translate(115.414)">
      <g id="Gruppe_7" data-name="Gruppe 7" transform="translate(0)">
        <path id="Pfad_17" data-name="Pfad 17" d="M242.617,0a1.756,1.756,0,0,0-1.756,1.756V4.84a1.756,1.756,0,0,0,3.513,0V1.756A1.756,1.756,0,0,0,242.617,0Z" transform="translate(-240.861)" fill="#c18e45"/>
      </g>
    </g>
    <g id="Gruppe_10" data-name="Gruppe 10" transform="translate(107.739 1.27)">
      <g id="Gruppe_9" data-name="Gruppe 9" transform="translate(0)">
        <path id="Pfad_18" data-name="Pfad 18" d="M179.209,14.967l-1.09-2.884a1.756,1.756,0,0,0-3.286,1.242l1.09,2.884a1.756,1.756,0,0,0,3.286-1.242Z" transform="translate(-174.719 -10.947)" fill="#c18e45"/>
      </g>
    </g>
    <g id="Gruppe_12" data-name="Gruppe 12" transform="translate(121.997 1.27)">
      <g id="Gruppe_11" data-name="Gruppe 11">
        <path id="Pfad_19" data-name="Pfad 19" d="M301.068,11.06a1.756,1.756,0,0,0-2.264,1.022l-1.09,2.884A1.756,1.756,0,1,0,301,16.208l1.09-2.884A1.756,1.756,0,0,0,301.068,11.06Z" transform="translate(-297.6 -10.946)" fill="#c18e45"/>
      </g>
    </g>
  </g>
</svg>
