<svg xmlns="http://www.w3.org/2000/svg" width="45.113" height="61.996" viewBox="0 0 45.113 61.996">
  <path id="_002-power" data-name="002-power" d="M77.373,25.691a1.952,1.952,0,0,0-1.788-1.169H59.357L67.174,2.609A1.953,1.953,0,0,0,63.9.629L32.942,34.2a1.953,1.953,0,0,0,1.436,3.276h10.55a1.953,1.953,0,1,0,0-3.905H38.834L60.278,10.316l-5.53,15.5a1.964,1.964,0,0,0,1.86,2.609h14.52L49.687,51.678l5.531-15.5a1.953,1.953,0,0,0-1.839-2.609H53.36a1.941,1.941,0,0,0-1.888,1.486L42.79,59.387a1.953,1.953,0,0,0,3.275,1.98L77.02,27.8A1.951,1.951,0,0,0,77.373,25.691Z" transform="translate(-32.425 0)" fill="#c18e45"/>
</svg>
